<svg width="647" height="113" viewBox="0 0 647 113" fill="none" xmlns="http://www.w3.org/2000/svg">
<path d="M577.164 102.456L570.539 97.4875V77.0604H563.914C562.147 77.0604 560.601 76.3979 559.276 75.0729C557.951 73.7479 557.289 72.202 557.289 70.4354V35.102H556.185C555.228 35.102 554.436 34.7892 553.811 34.1635C553.185 33.5378 552.872 32.7465 552.872 31.7895C552.872 30.8326 553.185 30.0413 553.811 29.4156C554.436 28.7899 555.228 28.4771 556.185 28.4771H570.539V18.5396H567.226C566.269 18.5396 565.478 18.2267 564.852 17.601C564.227 16.9753 563.914 16.184 563.914 15.2271C563.914 14.2701 564.227 13.4788 564.852 12.8531C565.478 12.2274 566.269 11.9146 567.226 11.9146H580.476C581.433 11.9146 582.225 12.2274 582.85 12.8531C583.476 13.4788 583.789 14.2701 583.789 15.2271C583.789 16.184 583.476 16.9753 582.85 17.601C582.225 18.2267 581.433 18.5396 580.476 18.5396H577.164V28.4771H591.518C592.475 28.4771 593.266 28.7899 593.892 29.4156C594.518 30.0413 594.83 30.8326 594.83 31.7895C594.83 32.7465 594.518 33.5378 593.892 34.1635C593.266 34.7892 592.475 35.102 591.518 35.102H590.414V70.4354C590.414 72.202 589.751 73.7479 588.426 75.0729C587.101 76.3979 585.555 77.0604 583.789 77.0604H577.164V102.456ZM563.914 70.4354H583.789V61.602H574.955C574.367 61.602 573.851 61.3812 573.41 60.9395C572.968 60.4979 572.747 59.9826 572.747 59.3937C572.747 58.8048 572.968 58.2895 573.41 57.8479C573.851 57.4062 574.367 57.1854 574.955 57.1854H583.789V48.352H574.955C574.367 48.352 573.851 48.1312 573.41 47.6896C572.968 47.2479 572.747 46.7326 572.747 46.1437C572.747 45.5548 572.968 45.0395 573.41 44.5979C573.851 44.1562 574.367 43.9354 574.955 43.9354H583.789V35.102H563.914V70.4354ZM609.185 100.248C607.418 100.248 605.872 99.5854 604.547 98.2604C603.222 96.9354 602.56 95.3895 602.56 93.6229V64.252C602.56 61.8965 602.854 60.1114 603.443 58.8968C604.032 57.6823 604.805 56.5597 605.762 55.5291C607.16 54.0569 608.08 52.9159 608.522 52.1062C608.964 51.2965 609.185 50.4132 609.185 49.4562V46.1437H608.08C607.123 46.1437 606.332 45.8309 605.706 45.2052C605.081 44.5795 604.768 43.7882 604.768 42.8312C604.768 41.8743 605.099 41.083 605.762 40.4573C606.424 39.8316 607.197 39.5187 608.08 39.5187H630.164C631.121 39.5187 631.912 39.8316 632.538 40.4573C633.163 41.083 633.476 41.8743 633.476 42.8312C633.476 43.7882 633.163 44.5795 632.538 45.2052C631.912 45.8309 631.121 46.1437 630.164 46.1437H629.06V49.4562C629.06 50.3395 629.336 51.2597 629.888 52.2166C630.44 53.1736 631.415 54.3882 632.814 55.8604C633.771 56.8909 634.488 57.9583 634.967 59.0625C635.445 60.1666 635.685 61.8965 635.685 64.252V93.6229C635.685 95.3895 635.022 96.9354 633.697 98.2604C632.372 99.5854 630.826 100.248 629.06 100.248H609.185ZM609.185 67.1229H629.06V64.252C629.06 62.927 628.692 61.7493 627.955 60.7187C627.219 59.6882 626.41 58.6208 625.526 57.5166C624.422 56.118 623.631 54.8298 623.152 53.652C622.674 52.4743 622.435 51.0757 622.435 49.4562V46.1437H615.81V49.4562C615.81 51.002 615.589 52.3639 615.147 53.5416C614.705 54.7194 613.932 56.0076 612.828 57.4062C611.945 58.5104 611.117 59.5961 610.344 60.6635C609.571 61.7309 609.185 62.927 609.185 64.252V67.1229ZM609.185 80.3729H629.06V71.5395H609.185V80.3729ZM609.185 93.6229H629.06V84.7895H609.185V93.6229Z" fill="#F2E744"/>
<path d="M41.0156 71C41.0156 69.8438 40.8438 68.8125 40.5 67.9062C40.1562 66.9688 39.5312 66.1094 38.625 65.3281C37.7188 64.5469 36.4375 63.7656 34.7812 62.9844C33.125 62.1719 30.9531 61.3438 28.2656 60.5C25.2031 59.5 22.2812 58.375 19.5 57.125C16.75 55.8438 14.2969 54.3594 12.1406 52.6719C9.98438 50.9844 8.28125 49.0156 7.03125 46.7656C5.8125 44.5156 5.20312 41.8906 5.20312 38.8906C5.20312 35.9844 5.84375 33.3594 7.125 31.0156C8.40625 28.6719 10.2031 26.6719 12.5156 25.0156C14.8281 23.3281 17.5469 22.0469 20.6719 21.1719C23.7969 20.2656 27.2344 19.8125 30.9844 19.8125C35.9844 19.8125 40.375 20.7031 44.1562 22.4844C47.9688 24.2344 50.9375 26.7031 53.0625 29.8906C55.1875 33.0469 56.25 36.7188 56.25 40.9062H41.0625C41.0625 39.0625 40.6719 37.4375 39.8906 36.0312C39.1406 34.5938 37.9844 33.4688 36.4219 32.6562C34.8906 31.8438 32.9688 31.4375 30.6562 31.4375C28.4062 31.4375 26.5156 31.7812 24.9844 32.4688C23.4844 33.125 22.3438 34.0312 21.5625 35.1875C20.8125 36.3438 20.4375 37.6094 20.4375 38.9844C20.4375 40.0781 20.7188 41.0781 21.2812 41.9844C21.875 42.8594 22.7188 43.6875 23.8125 44.4688C24.9375 45.2188 26.3125 45.9375 27.9375 46.625C29.5625 47.3125 31.4219 47.9688 33.5156 48.5938C37.1719 49.75 40.4062 51.0312 43.2188 52.4375C46.0625 53.8438 48.4531 55.4375 50.3906 57.2188C52.3281 59 53.7812 61.0156 54.75 63.2656C55.75 65.5156 56.25 68.0625 56.25 70.9062C56.25 73.9375 55.6562 76.625 54.4688 78.9688C53.3125 81.3125 51.625 83.3125 49.4062 84.9688C47.2188 86.5938 44.5938 87.8281 41.5312 88.6719C38.4688 89.5156 35.0469 89.9375 31.2656 89.9375C27.8281 89.9375 24.4375 89.5 21.0938 88.625C17.75 87.7188 14.7188 86.3438 12 84.5C9.3125 82.6562 7.15625 80.3125 5.53125 77.4688C3.9375 74.5938 3.14062 71.1875 3.14062 67.25H18.4219C18.4219 69.3125 18.7188 71.0625 19.3125 72.5C19.9062 73.9062 20.75 75.0469 21.8438 75.9219C22.9688 76.7969 24.3281 77.4219 25.9219 77.7969C27.5156 78.1719 29.2969 78.3594 31.2656 78.3594C33.5469 78.3594 35.3906 78.0469 36.7969 77.4219C38.2344 76.7656 39.2969 75.875 39.9844 74.75C40.6719 73.625 41.0156 72.375 41.0156 71ZM88.4062 89.9375C84.375 89.9375 80.7656 89.2969 77.5781 88.0156C74.3906 86.7344 71.6875 84.9688 69.4688 82.7188C67.2812 80.4375 65.6094 77.8125 64.4531 74.8438C63.2969 71.875 62.7188 68.7031 62.7188 65.3281V63.5469C62.7188 59.7656 63.25 56.2812 64.3125 53.0938C65.375 49.9062 66.9219 47.1406 68.9531 44.7969C71.0156 42.4219 73.5469 40.5938 76.5469 39.3125C79.5469 38 82.9688 37.3438 86.8125 37.3438C90.4062 37.3438 93.6094 37.9375 96.4219 39.125C99.2344 40.2812 101.609 41.9531 103.547 44.1406C105.484 46.2969 106.953 48.9062 107.953 51.9688C108.984 55 109.5 58.4062 109.5 62.1875V68.1875H68.625V58.7656H95.1562V57.6406C95.1562 55.8594 94.8281 54.2969 94.1719 52.9531C93.5469 51.6094 92.6094 50.5781 91.3594 49.8594C90.1406 49.1094 88.5938 48.7344 86.7188 48.7344C84.9375 48.7344 83.4531 49.1094 82.2656 49.8594C81.0781 50.6094 80.125 51.6719 79.4062 53.0469C78.7188 54.3906 78.2188 55.9688 77.9062 57.7812C77.5938 59.5625 77.4375 61.4844 77.4375 63.5469V65.3281C77.4375 67.2969 77.7031 69.0938 78.2344 70.7188C78.7656 72.3438 79.5469 73.7344 80.5781 74.8906C81.6094 76.0469 82.8594 76.9531 84.3281 77.6094C85.7969 78.2656 87.4688 78.5938 89.3438 78.5938C91.6562 78.5938 93.8594 78.1562 95.9531 77.2812C98.0469 76.375 99.8594 74.9688 101.391 73.0625L108.234 80.8906C107.203 82.3906 105.75 83.8438 103.875 85.25C102.031 86.625 99.8125 87.75 97.2188 88.625C94.625 89.5 91.6875 89.9375 88.4062 89.9375ZM158.297 78.6406L168.891 38.2812H184.266L167.438 89H158.203L158.297 78.6406ZM151.453 38.2812L162 78.6875L162.094 89H152.859L136.031 38.2812H151.453ZM215.766 76.9062V55.1562C215.766 53.625 215.531 52.3125 215.062 51.2188C214.594 50.125 213.859 49.2656 212.859 48.6406C211.859 48.0156 210.562 47.7031 208.969 47.7031C207.625 47.7031 206.453 47.9375 205.453 48.4062C204.484 48.875 203.734 49.5469 203.203 50.4219C202.703 51.2969 202.453 52.375 202.453 53.6562H187.828C187.828 51.375 188.344 49.25 189.375 47.2812C190.406 45.3125 191.875 43.5781 193.781 42.0781C195.719 40.5781 198.031 39.4219 200.719 38.6094C203.406 37.7656 206.422 37.3438 209.766 37.3438C213.734 37.3438 217.266 38.0156 220.359 39.3594C223.484 40.6719 225.953 42.6562 227.766 45.3125C229.578 47.9375 230.484 51.25 230.484 55.25V76.4844C230.484 79.5469 230.656 81.9531 231 83.7031C231.375 85.4219 231.906 86.9219 232.594 88.2031V89H217.828C217.141 87.5312 216.625 85.7188 216.281 83.5625C215.938 81.375 215.766 79.1562 215.766 76.9062ZM217.594 58.0625L217.688 66.125H210.422C208.797 66.125 207.391 66.3281 206.203 66.7344C205.047 67.1406 204.109 67.7031 203.391 68.4219C202.672 69.1094 202.141 69.9219 201.797 70.8594C201.484 71.7656 201.328 72.7656 201.328 73.8594C201.328 74.8906 201.578 75.8281 202.078 76.6719C202.578 77.4844 203.266 78.125 204.141 78.5938C205.016 79.0625 206.031 79.2969 207.188 79.2969C209.094 79.2969 210.719 78.9219 212.062 78.1719C213.438 77.4219 214.5 76.5156 215.25 75.4531C216 74.3594 216.375 73.3438 216.375 72.4062L219.891 78.5C219.328 79.75 218.641 81.0469 217.828 82.3906C217.016 83.7031 215.984 84.9375 214.734 86.0938C213.484 87.2188 211.969 88.1406 210.188 88.8594C208.438 89.5781 206.328 89.9375 203.859 89.9375C200.672 89.9375 197.781 89.2969 195.188 88.0156C192.594 86.7031 190.516 84.9062 188.953 82.625C187.422 80.3438 186.656 77.7188 186.656 74.75C186.656 72.0938 187.141 69.7344 188.109 67.6719C189.078 65.6094 190.531 63.8594 192.469 62.4219C194.438 60.9844 196.906 59.9062 199.875 59.1875C202.844 58.4375 206.312 58.0625 210.281 58.0625H217.594ZM261.281 78.5469C262.844 78.5469 264.203 78.25 265.359 77.6562C266.516 77.0625 267.406 76.2344 268.031 75.1719C268.688 74.0781 269.016 72.7656 269.016 71.2344H282.797C282.797 74.9219 281.844 78.1719 279.938 80.9844C278.062 83.7969 275.531 86 272.344 87.5938C269.156 89.1562 265.562 89.9375 261.562 89.9375C257.625 89.9375 254.188 89.2969 251.25 88.0156C248.312 86.7031 245.859 84.875 243.891 82.5312C241.922 80.1875 240.438 77.4688 239.438 74.375C238.469 71.25 237.984 67.875 237.984 64.25V63.0312C237.984 59.4375 238.469 56.0781 239.438 52.9531C240.438 49.8281 241.922 47.0938 243.891 44.75C245.859 42.4062 248.297 40.5938 251.203 39.3125C254.141 38 257.578 37.3438 261.516 37.3438C265.672 37.3438 269.344 38.1406 272.531 39.7344C275.75 41.3281 278.266 43.625 280.078 46.625C281.891 49.5938 282.797 53.1719 282.797 57.3594H269.016C269.016 55.7344 268.719 54.2812 268.125 53C267.562 51.6875 266.688 50.6562 265.5 49.9062C264.344 49.125 262.906 48.7344 261.188 48.7344C259.406 48.7344 257.938 49.125 256.781 49.9062C255.656 50.6562 254.797 51.7031 254.203 53.0469C253.609 54.3906 253.203 55.9219 252.984 57.6406C252.766 59.3281 252.656 61.125 252.656 63.0312V64.25C252.656 66.1875 252.766 68.0312 252.984 69.7812C253.203 71.5 253.609 73.0156 254.203 74.3281C254.828 75.6406 255.703 76.6719 256.828 77.4219C257.953 78.1719 259.438 78.5469 261.281 78.5469ZM305.484 38.2812V89H290.812V38.2812H305.484ZM289.922 25.1562C289.922 23.0313 290.672 21.2969 292.172 19.9531C293.672 18.5781 295.641 17.8906 298.078 17.8906C300.516 17.8906 302.484 18.5781 303.984 19.9531C305.516 21.2969 306.281 23.0313 306.281 25.1562C306.281 27.25 305.516 28.9844 303.984 30.3594C302.484 31.7031 300.516 32.375 298.078 32.375C295.641 32.375 293.672 31.7031 292.172 30.3594C290.672 28.9844 289.922 27.25 289.922 25.1562ZM330.375 49.1094V89H315.703V38.2812H329.484L330.375 49.1094ZM328.453 61.8594L324.797 61.9531C324.797 58.1406 325.266 54.7188 326.203 51.6875C327.141 48.6562 328.469 46.0781 330.188 43.9531C331.938 41.7969 334.016 40.1562 336.422 39.0312C338.859 37.9062 341.547 37.3438 344.484 37.3438C346.859 37.3438 349.031 37.6875 351 38.375C352.969 39.0625 354.656 40.1719 356.062 41.7031C357.5 43.2031 358.594 45.2031 359.344 47.7031C360.094 50.1719 360.469 53.2188 360.469 56.8438V89H345.75V56.7969C345.75 54.6719 345.453 53.0312 344.859 51.875C344.266 50.7188 343.391 49.9062 342.234 49.4375C341.109 48.9688 339.734 48.7344 338.109 48.7344C336.391 48.7344 334.922 49.0781 333.703 49.7656C332.484 50.4219 331.484 51.3438 330.703 52.5312C329.922 53.7188 329.344 55.1094 328.969 56.7031C328.625 58.2969 328.453 60.0156 328.453 61.8594ZM396.891 76.9062V55.1562C396.891 53.625 396.656 52.3125 396.188 51.2188C395.719 50.125 394.984 49.2656 393.984 48.6406C392.984 48.0156 391.688 47.7031 390.094 47.7031C388.75 47.7031 387.578 47.9375 386.578 48.4062C385.609 48.875 384.859 49.5469 384.328 50.4219C383.828 51.2969 383.578 52.375 383.578 53.6562H368.953C368.953 51.375 369.469 49.25 370.5 47.2812C371.531 45.3125 373 43.5781 374.906 42.0781C376.844 40.5781 379.156 39.4219 381.844 38.6094C384.531 37.7656 387.547 37.3438 390.891 37.3438C394.859 37.3438 398.391 38.0156 401.484 39.3594C404.609 40.6719 407.078 42.6562 408.891 45.3125C410.703 47.9375 411.609 51.25 411.609 55.25V76.4844C411.609 79.5469 411.781 81.9531 412.125 83.7031C412.5 85.4219 413.031 86.9219 413.719 88.2031V89H398.953C398.266 87.5312 397.75 85.7188 397.406 83.5625C397.062 81.375 396.891 79.1562 396.891 76.9062ZM398.719 58.0625L398.812 66.125H391.547C389.922 66.125 388.516 66.3281 387.328 66.7344C386.172 67.1406 385.234 67.7031 384.516 68.4219C383.797 69.1094 383.266 69.9219 382.922 70.8594C382.609 71.7656 382.453 72.7656 382.453 73.8594C382.453 74.8906 382.703 75.8281 383.203 76.6719C383.703 77.4844 384.391 78.125 385.266 78.5938C386.141 79.0625 387.156 79.2969 388.312 79.2969C390.219 79.2969 391.844 78.9219 393.188 78.1719C394.562 77.4219 395.625 76.5156 396.375 75.4531C397.125 74.3594 397.5 73.3438 397.5 72.4062L401.016 78.5C400.453 79.75 399.766 81.0469 398.953 82.3906C398.141 83.7031 397.109 84.9375 395.859 86.0938C394.609 87.2188 393.094 88.1406 391.312 88.8594C389.562 89.5781 387.453 89.9375 384.984 89.9375C381.797 89.9375 378.906 89.2969 376.312 88.0156C373.719 86.7031 371.641 84.9062 370.078 82.625C368.547 80.3438 367.781 77.7188 367.781 74.75C367.781 72.0938 368.266 69.7344 369.234 67.6719C370.203 65.6094 371.656 63.8594 373.594 62.4219C375.562 60.9844 378.031 59.9062 381 59.1875C383.969 58.4375 387.438 58.0625 391.406 58.0625H398.719ZM471.984 76.9062V55.1562C471.984 53.625 471.75 52.3125 471.281 51.2188C470.812 50.125 470.078 49.2656 469.078 48.6406C468.078 48.0156 466.781 47.7031 465.188 47.7031C463.844 47.7031 462.672 47.9375 461.672 48.4062C460.703 48.875 459.953 49.5469 459.422 50.4219C458.922 51.2969 458.672 52.375 458.672 53.6562H444.047C444.047 51.375 444.562 49.25 445.594 47.2812C446.625 45.3125 448.094 43.5781 450 42.0781C451.938 40.5781 454.25 39.4219 456.938 38.6094C459.625 37.7656 462.641 37.3438 465.984 37.3438C469.953 37.3438 473.484 38.0156 476.578 39.3594C479.703 40.6719 482.172 42.6562 483.984 45.3125C485.797 47.9375 486.703 51.25 486.703 55.25V76.4844C486.703 79.5469 486.875 81.9531 487.219 83.7031C487.594 85.4219 488.125 86.9219 488.812 88.2031V89H474.047C473.359 87.5312 472.844 85.7188 472.5 83.5625C472.156 81.375 471.984 79.1562 471.984 76.9062ZM473.812 58.0625L473.906 66.125H466.641C465.016 66.125 463.609 66.3281 462.422 66.7344C461.266 67.1406 460.328 67.7031 459.609 68.4219C458.891 69.1094 458.359 69.9219 458.016 70.8594C457.703 71.7656 457.547 72.7656 457.547 73.8594C457.547 74.8906 457.797 75.8281 458.297 76.6719C458.797 77.4844 459.484 78.125 460.359 78.5938C461.234 79.0625 462.25 79.2969 463.406 79.2969C465.312 79.2969 466.938 78.9219 468.281 78.1719C469.656 77.4219 470.719 76.5156 471.469 75.4531C472.219 74.3594 472.594 73.3438 472.594 72.4062L476.109 78.5C475.547 79.75 474.859 81.0469 474.047 82.3906C473.234 83.7031 472.203 84.9375 470.953 86.0938C469.703 87.2188 468.188 88.1406 466.406 88.8594C464.656 89.5781 462.547 89.9375 460.078 89.9375C456.891 89.9375 454 89.2969 451.406 88.0156C448.812 86.7031 446.734 84.9062 445.172 82.625C443.641 80.3438 442.875 77.7188 442.875 74.75C442.875 72.0938 443.359 69.7344 444.328 67.6719C445.297 65.6094 446.75 63.8594 448.688 62.4219C450.656 60.9844 453.125 59.9062 456.094 59.1875C459.062 58.4375 462.531 58.0625 466.5 58.0625H473.812ZM512.156 38.2812V89H497.484V38.2812H512.156ZM498 32.4219L507.281 17.8438H522.938L509.953 32.4219H498Z" fill="#F2E744"/>
</svg>
